<svg xmlns="http://www.w3.org/2000/svg" id="katman_1" viewBox="0 0 1080 1080"><defs><style>.cls-1{fill:#cbf47e}.cls-1,.cls-2,.cls-3,.cls-4,.cls-5,.cls-6{stroke-width:0}.cls-2{fill:#155b15}.cls-3{fill:#71ff67}.cls-4{fill:#fbfcfe}.cls-5{fill:#0d560d}.cls-6{fill:#259028}</style></defs><path d="m297.45,216.86c2.2,3.6,4.27,7.29,6.48,11.13-6.82,1.23-13.5,2.45-20.76,3.76.47-4.35.87-8.59,1.44-12.8.06-.46,1.03-1.01,1.66-1.13,3.09-.63,6.21-1.17,9.33-1.61.59-.09,1.58.2,1.85.65Z" class="cls-1"/><path d="m301.79,111.54c7.16,5.73,10.74,21.19,6.02,28.76-2.49,3.99-5.24,7.9-8.39,11.38-6.05,6.71-11.29,13.76-13.21,22.83-1.06,5.02-.66,9.92.9,15.14-2.44.46-4.53.85-6.87,1.29-.54-3.16-1.19-6.08-1.52-9.04-.65-5.87-1.09-11.77-1.69-17.65-.29-2.83.29-5.45,2.3-7.38,3.52-3.39,7.06-6.81,10.98-9.7,7.13-5.25,9.14-12.38,8.41-20.67-.34-3.85-2.47-6.69-5.81-8.52-5.13-2.82-10.57-3.61-16.18-1.83-8.12,2.58-14.43,7.5-18.43,15.12-1.35,2.57-2.54,5.23-3.77,7.8-.3,0-.48.05-.61,0-8.44-3.61-8.55-3.73-5.25-12.16,1.39-3.55,2.99-7.06,4.81-10.41,3.88-7.14,9.93-11.15,18.02-12.35,11.15-1.65,21.17.09,30.29,7.39Z" class="cls-1"/><path d="m244.31,251.03c.55.32,1.05.74,1.67,1.19-9.54,7.04-18.94,13.99-28.3,20.89-3.28-5.69-6.63-11.51-10.01-17.37,4.92-5.19,9.81-10.39,14.79-15.52.4-.42,1.57-.63,2.07-.35,6.62,3.65,13.2,7.41,19.78,11.16Z" class="cls-1"/><path d="m193.58,207.03c1.58,2.93,3.35,5.74,5.06,8.65-2.57,3.12-5.16,6.25-8.19,9.93-3.83-4.96-7.82-9.53-11.12-14.56-4.83-7.38-9.02-15.19-13.76-22.63-3.77-5.91-4.68-12.04-2.49-18.62,1.16-3.47,2.56-6.86,3.86-10.28,3.08-8.08,4.67-16.37,3.07-24.99-1.45-7.84-6.44-12.19-14.11-13.4-20.45-3.2-35.36,15.11-35.54,30.52-.05,5.08.19,10.16.3,15.24.02.82.07,1.63.1,2.49-6.69.33-12.99.64-19.75.98-.41-2.31-1.07-5.03-1.35-7.79-1.17-11.3-.35-22.48,2.54-33.47,2.77-10.51,9.58-17.91,18.92-22.81,16.21-8.5,33.04-9.62,50.22-2.9,13.51,5.29,19.96,15.69,19.88,29.7-.06,8.33-1.9,16.66-3.07,24.98-.58,4.12-1.47,8.2-2.24,12.29-2.51,13.29,1.5,25.21,7.67,36.67Z" class="cls-1"/><path d="m853.96,631.95c1.13,4.29.89,8.48-1.24,12.38-2.07,3.8-4.22,7.58-6.64,11.17-6.4,9.46-13.26,18.54-21.22,26.82-14.31,14.89-24,32.29-29.03,52.52-5.62,22.58-11.24,45.14-13.73,68.29-1.64,15.3-3.98,30.61-2.92,46.11.02.23-.08.47-.19,1.04-5.11-.24-10.07-.47-15.3-.71.12-2.24.22-4.3.36-6.35,3.04-45.21,3.49-90.45,1.61-135.71-1.71-41.26-5.27-82.35-10.85-123.26-11.03-80.83-28.82-160.03-57.09-236.69-13.72-37.21-30.01-73.24-50.06-107.52-4.03-6.88-7.62-14.02-11.4-21.04-2.09-3.88-5.9-5.58-9.5-7.52-1.16-.62-2.56-.77-3.74-1.37-10.19-5.19-20.85-4.26-31.57-2.47-16.99,2.82-33.32,8.18-49.76,13.09-.84.25-1.68.48-2.52.72-.16-.24-.33-.49-.49-.74,8.94-7.84,17.43-16.27,26.9-23.39,21.41-16.11,44.1-30.3,68.07-42.34,10.57-5.31,21.68-8.98,33.51-10.34,5.29-.6,10.28.21,15.13,2.28,4.55,1.94,7.15,5.34,6.93,10.26-.17,3.62-.64,7.38-1.83,10.77-4.49,12.73-5.01,25.69-3.68,38.98.52,5.18,2.59,8.87,5.97,12.63,6.53,7.26,14.55,11.73,23.58,14.94,6.58,2.34,13.07,4.99,19.47,7.82,10.64,4.7,21.93,6.74,33.28,8.65,4.59.77,9.16,1.81,13.64,3.06,4.72,1.31,8.54,4.04,11.2,8.29,1.62,2.6,1.84,5.28.97,8.15-2.03,6.68-5.33,12.69-9.26,18.46-5.82,8.53-11.53,17.14-16.94,25.93-5.36,8.7-8.19,18.39-9.76,28.43-1.1,7.01,1.1,13.04,6.05,18.02,7.38,7.41,15.95,13.21,25.68,16.99,12.43,4.84,24.01,11.24,35.01,18.65,11.34,7.64,19.4,18.18,24.87,30.64,3.22,7.32,2.85,14.95-.16,22.18-2.38,5.73-5.09,11.49-8.64,16.55-9.32,13.3-19.08,26.3-28.83,39.29-6.89,9.17-13.35,18.55-16.83,29.62-2.78,8.86-1.79,17.25,3.33,25.12,6.11,9.4,13.99,17.15,22.46,24.36,7.81,6.65,15.79,13.12,22.14,21.27,6.06,7.79,10.48,16.41,13.02,25.97Z" class="cls-6"/><path d="m559.36,374.94c.23,4.4-.12,8.82-.28,13.23-.04,1.07-.31,2.15-.62,3.18-.96,3.14-2.02,4.1-5.28,3.63-6.34-.91-12.66-2.02-18.93-3.31-21.13-4.35-42.42-6.91-64.03-5.85-15.24.75-29.67,5.04-43.79,10.48-5.67,2.18-11.28,4.55-16.82,7.04-1.97.88-3.09.43-3.65-1.38-.66-2.12-1.4-4.33-1.45-6.51-.1-4.57-.07-9.18.43-13.72,1.78-16.21,11.78-25.91,26.31-31.17,14.93-5.41,30.48-7.77,46.42-7.27,20.77.9,41.3,3.52,61.37,9.17,2.48.69,4.89,1.68,7.22,2.77,8.35,3.9,12.62,10.65,13.1,19.71Z" class="cls-6"/><path d="m459.67,449.56c.14.02.26.15.74.45-26.56,11.09-47.4,28.42-60.97,54.04-5.18-6.56-11.14-12.07-17.34-17.42,1.02-4.17,2.67-8.77,3.17-13.49.86-8.18,1-16.44,1.47-24.66.04-.72.06-1.6.46-2.11,6.07-7.89,8.45-17.28,11-26.61.13-.47.31-.93.68-2.04,1.42,1,2.73,1.61,3.62,2.6,7.43,8.26,16.24,14.81,25.59,20.67,8.51,5.33,18.17,6.78,27.87,8.07,1.24.17,2.48.32,3.71.5Z" class="cls-6"/><path d="m453.28,599.19c.5,6.66-1.33,12.9-4.62,18.37-1.68,2.78-5.27,4.97-8.47,6.15-10.95,4.06-22.09,7.65-34.08,6.82-4.99-.35-9.99-.54-14.96-1.09-13.28-1.47-24.07-8.29-34.22-16.36-1.9-1.51-2.29-3.35-1.48-5.97,1.48-4.82,2.42-9.84,3.23-14.83.63-3.85.62-7.8,1.06-11.69.83-7.35.58-14.65-.72-21.91-.28-1.56-.1-2.44,1.53-3.02,4.49-1.62,7.14-5,8.56-9.46.35-1.11.68-2.23,1.04-3.34,2.02-6.19,5.87-10.66,11.92-13.33,5.24-2.31,10.27-5.07,15.5-7.37,1.59-.7,3.59-.89,5.35-.74,10.35.87,19.84,4.31,28.33,10.26,2.01,1.41,3.66,3.39,5.27,5.28,1.62,1.89,2.88,4.1,4.5,5.99,7.7,8.95,10.08,19.65,10.62,31.06.4,8.4,1.01,16.79,1.64,25.18Z" class="cls-6"/><path d="m347.57,560.83c1.65,8.91.59,17.78-.27,26.65-.33,3.48-.58,6.99-1.23,10.41-1.5,7.85-5.83,14.15-11.68,19.34-1.93,1.71-4.49,2.88-6.95,3.79-10.31,3.82-20.96,5.98-32.01,6.02-8.16.04-16.34.78-24.46.38-7.47-.36-14.82-1.83-21.89-4.71-7.88-3.22-11.38-9.22-11.89-17.19-.36-5.73-.07-11.49-.07-17.24-.2-.02-.4-.03-.6-.05.99-12.28,1.93-24.57,3.01-36.85.56-6.37,3.29-11.83,7.66-16.47,5.28-5.62,10.95-10.73,18.07-13.98.98-.45,2-.87,2.89-1.48,7.83-5.44,16.36-6.09,25.31-3.73.77.2,1.69.79,2.03,1.46,1.36,2.65,3.5,4.22,6.27,4.96,6.19,1.64,12.43,3.1,18.58,4.88,1.63.47,3.56,1.49,4.39,2.85,2.84,4.67,5.24,9.62,7.86,14.44,1.58,2.91,2.82,6.16,4.99,8.56,2.02,2.24,4.95,3.78,7.72,5.17,1.38.7,2,1.31,2.27,2.79Z" class="cls-6"/><path d="m386.01,506.23c5.34,5.34,5,7.32-1.92,10.09-1.93.77-3.88,1.5-5.83,2.25-9.95,3.83-16.22,11.05-19.4,21.1-1.5,4.78-4.69,7.22-9.66,7.08-1-.03-2.3-.79-2.88-1.61-1.22-1.76-2.05-3.78-3.06-5.69-2.71-5.14-5.28-10.37-8.19-15.41-3.13-5.41-8.03-8.09-14.23-9.02-4.25-.63-8.37-2.11-12.55-3.2-1.37-.35-1.5-1.17-.87-2.24,2.5-4.19,5.29-8.23,9.65-10.58,2.02-1.08,4.61-1.51,6.94-1.52,9.58-.04,19.16.24,28.74.3,7.68.05,15.35-.16,21.74-3.36,4.02,4.13,7.72,8.02,11.52,11.81Z" class="cls-6"/><path d="m311.98,434.65c.47,1.35,1.86,2.37.91,4.32-1.54,3.17-3.1,6.52-3.62,9.95-1.48,9.79-2.52,19.65-3.59,29.5-.64,5.87-.15,8.08,2.29,13.09-4.62,3.44-8.13,7.7-11.03,12.54-.29.49-1.7.65-2.48.47-5.44-1.29-10.92-2.75-16.51-1.53-3.38.74-6.72,1.95-9.87,3.39-4.9,2.25-9.63,4.88-14.92,7.6-.35-2.89-.86-5.54-.96-8.21-.55-15.04,4.64-28.28,13.23-40.29,11.04-15.43,25.62-25.98,44.01-31.05.8-.22,2.42-.12,2.54.22Z" class="cls-6"/><path d="m373.68,443.37c2.7,7.89,1.34,15.88.47,23.79-.5,4.59-1.79,9.11-2.87,13.62-.56,2.33-2.31,3.61-4.63,4.03-2.21.41-4.44,1.01-6.66,1.01-12.99-.01-25.99-.12-38.98-.31-3.34-.05-4.05-.78-3.72-4.15.71-7.22,1.68-14.4,2.54-21.6.41-3.47.69-6.97,1.21-10.42.57-3.71,1.7-4.56,5.46-4.86,1.98-.15,3.95-.59,5.93-.76,5.71-.47,11.43-1.2,17.14-1.21,7.98-.01,15.97.55,24.11.86Z" class="cls-6"/><path d="m383.54,403.51c.76.52,1.44,2.07,1.24,2.93-2.08,9-4.34,17.95-6.56,26.92-.04.14-.21.24-.24.27-13.52-1.41-26.69-3.69-40.08-2.7-2.82.21-5.59.92-8.4,1.24-1.3.15-2.65-.06-3.98-.18-1.52-.13-2.4-.93-2.54-2.54-.85-9.55.44-18.61,6.05-26.7,1.71-2.48,4.08-3.91,6.84-5.15,12.95-5.82,25.77-3.25,38.48.53,3.31.98,6.24,3.39,9.19,5.38Z" class="cls-6"/><path d="m305.47,385.64c3.67,3.45,5.77,7.14,5.56,12.2-.14,3.46-.03,6.94-.03,10.69-5.75-.54-11.22-.25-16.33-2.94-2.98-1.58-6.23-2.89-9.51-3.64-9.07-2.05-18.03-4.83-27.49-4.76-4.75.03-8.48-2.15-11.79-5.63-7.81-8.22-11.08-17.97-10.83-29.15.1-4.27,1.81-7.22,6.02-8.38,4.89-1.35,9.76-2.84,14.72-3.84,5.98-1.2,11.74-.1,16.56,3.73,4.61,3.66,9.02,7.62,13.23,11.73,6.73,6.57,13.04,13.56,19.89,19.99Z" class="cls-6"/><path d="m731.01,656.73c4.75,47.91,7.34,95.92,5.46,144.07-.47,12.07-1.6,24.12-2.43,36.18-.05.83-.34,1.7-.18,2.48.85,3.97-1.59,6.24-4.21,8.4-5.95,4.9-12.94,7.85-20.14,10.31-16.9,5.79-34.42,8.59-52.1,10.44-37.44,3.93-74.9,3.46-112.37.54-41.39-3.22-82.29-9.42-122.38-20.37-17.48-4.77-34.56-10.62-50.97-18.39-2.15-1.02-3.07-2.34-3.51-4.58-2.39-12.24-1.67-24.55-1.28-36.89.67-21.24,5.26-41.78,10.38-62.26,2.09-8.32,3.96-16.69,5.87-25.06.36-1.56.91-2.23,2.69-1.91,43.25,7.88,85.36,2.53,126.62-11.33,49.47-16.62,92.61-43.81,130.67-79.29,2.32-2.16,4.6-4.36,6.84-6.6.75-.75,1.46-1.61,1.98-2.54,1.29-2.31.94-4.95-.74-6.73-1.76-1.85-4.55-2.36-6.89-.99-1.34.79-2.52,1.9-3.65,3-35.47,34.49-75.95,61.25-122.37,78.66-32.72,12.27-66.49,18.96-101.57,17.52-34.66-1.43-66.99-10.44-95.17-31.38-7.79-5.79-14.59-12.89-21.84-19.4-.42-.37-.73-.87-1.24-1.48,5.81-.83,11.37-1.35,16.78-2.5,5.37-1.14,10.63-2.81,15.87-4.44,6.38-1.98,11.63-5.7,15.79-10.95.46-.58.97-1.13,1.48-1.69.1-.11.29-.15.23-.12,13.06,13.66,28.67,21.54,47.66,22.31,10.34.41,20.74,1.15,30.84-1.65,7.75-2.16,15.84-3.64,22.75-8.09,2.9-1.87,5.36-4.42,8.03-6.65.49-.41.98-.96,1.56-1.14,11.46-3.63,21.91-9.33,32.01-15.69,8.88-5.58,18.24-10.03,28.21-13.25.93-.3,1.88-.55,3.03-.89,1.49,5.7,2.97,11.22,4.38,16.75,2.24,8.74,3.86,17.58,4.05,26.64.04,2.41.72,4.62,2.89,6.06,2.85,1.9,6.68,1.04,8.61-2.3,1.69-2.94,3.03-6.11,4.34-9.26,5.43-13.12,8.06-26.94,10.22-40.89.86-5.56.92-5.88,6.57-5.57,5.03.28,10.28.65,14.95,2.32,7.74,2.74,15.1,6.56,22.61,9.93.99.44,1.94,1.03,2.97,1.27,2.42.59,4.5-.15,5.94-2.18,1.43-2.05,1.46-4.29.03-6.32-.8-1.12-1.87-2.22-3.07-2.86-11.38-6.17-22.95-11.89-36.01-13.63-8.41-1.13-16.62.3-24.8,1.96-12.43,2.52-24.71,5.57-36.61,10.03-.22.08-.48.07-.87.13-.24-.49-.5-.99-.73-1.49-2.54-5.53-5.04-11.07-7.63-16.57-1.76-3.77-3.68-7.47-5.47-11.23-1.48-3.12-3.73-4.62-6.62-4.26-2.72.34-4.81,2.29-5.21,5.6-1.41,11.75-2.74,23.51-3.87,35.29-.18,1.92.92,3.94,1.24,5.95.1.67-.16,1.82-.63,2.1-5.1,2.97-10.27,5.8-15.92,8.96.26-1.7.57-2.8.57-3.9-.01-4.74,0-9.48-.2-14.21-.23-5.32-.54-10.65-1.07-15.96-.66-6.7-1.07-13.49-2.55-20.02-1.1-4.85-3.27-9.63-5.8-13.95-3.03-5.15-6.72-9.96-10.53-14.58-7.26-8.8-17.38-12.92-27.92-16.16-2.22-.69-4.52-1.14-7.08-1.77.45-.91.8-1.72,1.23-2.49,14.32-25.55,36.18-41.71,63.8-50.18,32.79-10.05,65.2-7.47,97.14,4.21,1.17.43,2.35.88,3.57,1.11,2.73.5,5.34-.91,6.37-3.31,1.05-2.44.31-5.25-1.97-6.89-1-.71-2.17-1.25-3.33-1.69-15.13-5.72-30.73-9.39-46.87-10.71-.83-.06-1.65-.19-2.55-.3.11-.35.12-.65.27-.78,6.51-5.47,10.35-12.75,13.71-20.33.89-2.01,1.45-4.17,2.38-6.15.23-.5,1.33-.87,2.01-.83,2.57.16,5.21.22,7.68.86,4.47,1.16,8.13-.44,11.74-2.66,3.37-2.08,4.27-5.29,4.45-8.98.12-2.47.46-4.94.88-7.38,1.57-8.95,2.12-17.94-.06-26.81-3.01-12.17-11.18-19.76-22.66-24.09-10.6-3.99-21.69-5.88-32.8-7.68-16.08-2.6-32.22-4.24-48.55-3.38-13.84.72-27.34,3.35-40.25,8.28-15.11,5.77-26.13,16.13-30.76,31.92-1.74,5.98-1.58,12.51-2.23,18.79-.14,1.39-.02,2.81-.02,4.93-10.08-9.11-21.92-11.87-34.45-12.37-12.48-.5-24.63,1.01-36.07,7.46-1.46-8.08-7.61-12.26-12.77-17.32-5.88-5.77-11.39-11.91-17-17.95-.36-.39-.36-1.32-.22-1.93,5.32-22.93,20.64-39.13,37.43-53.92,40.93-36.07,87.54-62.11,140.18-76.89,8.07-2.26,16.49-3.25,24.76-4.8.85-.16,1.74-.14,3.17-.24-.67.81-.94,1.19-1.26,1.51-12.42,12.36-22.4,26.67-32.4,40.91-3.95,5.61-6.66,12.1-9.77,18.27-1.37,2.73-.42,5.83,1.98,7.89,2.13,1.82,4.92,2.15,7.41.38,28.5-20.23,61.03-30.13,94.69-37.2,4.65-.97,9.43-1.52,13.92-2.96,7.2-2.31,14.5-3.93,21.97-4.83,3.69-.45,7.49-.93,11.14-.52,2.26.25,5.06,1.63,6.34,3.42,4.54,6.34,8.7,12.99,12.68,19.7,2.46,4.14,4.04,8.8,6.56,12.9,17.26,28.09,29.05,58.59,39.7,89.58,16.91,49.18,29.39,99.54,39.54,150.51,9.19,46.13,16.15,92.6,20.8,139.41Z" class="cls-6"/><path d="m531.52,412.89c-3.06,4.93-5.95,9.76-9.04,14.46-.84,1.27-2.19,2.3-3.48,3.16-4.87,3.27-23.62,8.1-29.94,7.72,3.71-11.07,4.63-22.13-.56-33.45,15.05-.66,29.27.99,43.02,8.11Z" class="cls-4"/><path d="m277.51,425.61c.12,3.09,1.08,6.14,1.79,9.81-2.7,2.11-6.07,4.74-9.28,7.25-5.93-8.92-10.97-17.86-11.19-29.13,6.78.77,13.27,1.51,19.67,2.24-.39,3.48-1.1,6.67-.99,9.83Z" class="cls-1"/><path d="m476.84,407.25c3.98,7.09,4.42,14.55,2.52,22.27-.47,1.93-1.1,3.83-1.76,5.72-1.31,3.79-1.35,3.92-5.24,3.55-7.13-.68-14.24-1.53-21.35-2.34-.63-.07-1.25-.31-2.22-.55,4.32-9.15,4.16-18.33.7-27.79,1.73-.27,3.18-.56,4.65-.72,6.37-.69,12.75-1.31,19.12-2.04,1.72-.19,2.71.35,3.58,1.9Z" class="cls-1"/><path d="m864.65,626.43c2.88,9.02,2.28,17.72-2.78,25.72-5.26,8.3-10.8,16.44-16.57,24.39-3.26,4.5-7.12,8.59-10.91,12.67-10.08,10.84-19.05,22.47-23.53,36.76-3.41,10.9-5.84,22.1-8.8,33.14-4.05,15.17-6.54,30.63-8.42,46.18-1.19,9.91-1.62,19.91-2.38,29.88-.56,7.37-1.06,14.75-1.68,22.12-.32,3.77-2.59,5.43-6.82,5.19-1.92-.11-3.83-.3-5.74-.45-1.91-.14-3.82-.27-5.29-.37-3.95,0-7.45-.07-10.94.01-6.57.16-9.48-2.91-9.12-9.49.96-17.06,2.1-34.12,2.72-51.19,1.31-36.34.74-72.67-1.21-108.98-2.56-47.57-7.64-94.86-15.34-141.87-8.78-53.53-20.83-106.29-37.23-158.01-14.52-45.77-32.21-90.23-55.34-132.41-5.22-9.53-10.56-19-15.55-28.65-5.12-9.9-14.1-12.74-24.05-12.97-10.48-.24-20.7,2.33-30.72,5.2-16.1,4.6-32.1,9.56-48.14,14.36-1.43.43-2.9.78-4.33,1.22-4.04,1.24-6.95-.86-9.53-3.45-1.8-1.8-1.66-4.67.2-6.85,1.39-1.64,3.04-3.08,4.63-4.55,8.83-8.12,17.72-16.19,26.5-24.36,10.91-10.16,23.11-18.57,35.55-26.69,17.03-11.13,34.27-21.93,52.79-30.47,11.65-5.38,23.83-9,36.75-9.78,6.95-.42,13.42,1.31,19.53,4.36,9.41,4.7,13.86,14.67,11.64,26.32-.94,4.89-2.48,9.67-3.81,14.49-2.67,9.68-2.46,19.45-.83,29.24.21,1.23.97,2.48,1.76,3.5,4.35,5.65,10.1,9.28,16.74,11.77,8.02,3.03,16.02,6.16,23.9,9.53,9.54,4.08,19.66,5.6,29.74,7.5,6.11,1.15,12.21,2.64,18.13,4.56,5.59,1.81,9.98,5.58,13.47,10.35,4.45,6.09,5.58,12.68,3.32,19.89-2.8,8.94-7.57,16.76-12.93,24.39-5.65,8.03-11.15,16.26-15.64,24.96-3.16,6.12-4.63,13.13-6.63,19.81-1.29,4.28.28,7.83,3.53,10.76,6.11,5.52,12.8,10.24,20.49,13.19,12.69,4.87,24.43,11.47,35.8,18.78,13.74,8.83,23.49,21.13,30.24,35.79,5.99,13.02,4.36,26.15-2.19,38.3-5.6,10.37-12.28,20.22-19.06,29.89-6.5,9.27-14.04,17.8-20.58,27.05-4.11,5.81-7.54,12.18-10.68,18.58-3.38,6.88-2.65,13.62,2,20.02,5.74,7.89,12.73,14.5,20.04,20.86,6.03,5.25,12.08,10.53,17.67,16.23,9.32,9.5,15.59,20.91,19.63,33.58Zm-11.93,17.9c2.13-3.9,2.37-8.09,1.24-12.38-2.54-9.56-6.96-18.18-13.02-25.97-6.35-8.15-14.33-14.62-22.14-21.27-8.47-7.21-16.35-14.96-22.46-24.36-5.12-7.87-6.11-16.26-3.33-25.12,3.48-11.07,9.94-20.45,16.83-29.62,9.75-12.99,19.51-25.99,28.83-39.29,3.55-5.06,6.26-10.82,8.64-16.55,3.01-7.23,3.38-14.86.16-22.18-5.47-12.46-13.53-23-24.87-30.64-11-7.41-22.58-13.81-35.01-18.65-9.73-3.78-18.3-9.58-25.68-16.99-4.95-4.98-7.15-11.01-6.05-18.02,1.57-10.04,4.4-19.73,9.76-28.43,5.41-8.79,11.12-17.4,16.94-25.93,3.93-5.77,7.23-11.78,9.26-18.46.87-2.87.65-5.55-.97-8.15-2.66-4.25-6.48-6.98-11.2-8.29-4.48-1.25-9.05-2.29-13.64-3.06-11.35-1.91-22.64-3.95-33.28-8.65-6.4-2.83-12.89-5.48-19.47-7.82-9.03-3.21-17.05-7.68-23.58-14.94-3.38-3.76-5.45-7.45-5.97-12.63-1.33-13.29-.81-26.25,3.68-38.98,1.19-3.39,1.66-7.15,1.83-10.77.22-4.92-2.38-8.32-6.93-10.26-4.85-2.07-9.84-2.88-15.13-2.28-11.83,1.36-22.94,5.03-33.51,10.34-23.97,12.04-46.66,26.23-68.07,42.34-9.47,7.12-17.96,15.55-26.9,23.39.16.25.33.5.49.74.84-.24,1.68-.47,2.52-.72,16.44-4.91,32.77-10.27,49.76-13.09,10.72-1.79,21.38-2.72,31.57,2.47,1.18.6,2.58.75,3.74,1.37,3.6,1.94,7.41,3.64,9.5,7.52,3.78,7.02,7.37,14.16,11.4,21.04,20.05,34.28,36.34,70.31,50.06,107.52,28.27,76.66,46.06,155.86,57.09,236.69,5.58,40.91,9.14,82,10.85,123.26,1.88,45.26,1.43,90.5-1.61,135.71-.14,2.05-.24,4.11-.36,6.35,5.23.24,10.19.47,15.3.71.11-.57.21-.81.19-1.04-1.06-15.5,1.28-30.81,2.92-46.11,2.49-23.15,8.11-45.71,13.73-68.29,5.03-20.23,14.72-37.63,29.03-52.52,7.96-8.28,14.82-17.36,21.22-26.82,2.42-3.59,4.57-7.37,6.64-11.17Z" class="cls-5"/><path d="m742.07,649.72c5.73,55.97,8.62,112.03,5.33,168.28-.48,8.15-1.81,16.27-1.9,24.41-.07,6.43-3.58,10.36-7.82,14.06-6.64,5.79-14.57,9.3-22.78,12.22-16.67,5.92-33.97,9.01-51.47,11.02-48.12,5.54-96.2,4.02-144.23-1.21-33.51-3.65-66.67-9.34-99.21-18.27-17.7-4.87-35.12-10.55-51.61-18.75-2.82-1.41-5.54-3.05-8.2-4.76-2.16-1.38-3.1-3.42-3.25-6.11-.18-3.31-1.01-6.57-1.39-9.88-1.78-15.42-.34-30.79.66-46.18,1.06-16.25,5.32-31.85,9.02-47.58,2.34-9.96,4.59-19.95,6.95-30.22-2.92-.87-5.88-1.71-8.81-2.64-26.19-8.38-49.34-21.75-68.26-41.93-3.23-3.45-6.07-7.3-8.85-11.13-1.02-1.4-1.91-2.04-3.63-1.85-8.89,1.01-17.7-.06-26.3-2.11-5.7-1.36-11.49-3.22-16.57-6.07-9.76-5.48-14.22-14.77-14.27-25.63-.07-14.57.7-29.14,1.27-43.71.17-4.49.74-8.97,1.37-13.42,1.29-9.2,5.78-16.76,12.24-23.26,1.46-1.46,2.84-3.01,4.37-4.65-2.92-2.06-3.32-5.42-3.75-8.71-2.3-17.52,2.57-33.35,11.66-48.08,2.83-4.58,6.22-8.81,9.46-13.34-6.35-.1-9-4.72-11.17-9.69-2.49-5.68-2.96-11.76-3-17.88-.03-4.66-.04-9.33-.17-13.99-.02-.67-.47-1.65-1.02-1.95-11.27-6.31-17.98-16.14-21.49-28.26-1.95-6.78-2.6-13.76-1.4-20.8,1.05-6.08,4.28-10.74,9.96-13.2,9.47-4.11,19.27-7.01,29.8-6.16,6.54.53,12.11,3.45,17.33,7.18.33.24.69.44,1,.63.21-.11.44-.16.47-.25,3.44-14.21,11.67-25.7,21.02-36.46,15.81-18.2,34.43-33.17,54.32-46.6,31.26-21.1,64.57-38.08,100.74-49.12,15.68-4.79,31.63-8.19,48.16-7.92,2.82.04,5.66.25,8.46.61,3.39.44,5.47,2.46,5.81,5.29.34,2.86-1.23,4.84-4.6,6.28-1.41.6-2.72,1.58-3.91,2.6-7.67,6.58-14.67,13.81-20.74,21.94-5.13,6.88-10.35,13.69-15.52,20.55-.57.75-1.07,1.57-1.85,2.72,7.14-3.26,13.75-6.35,20.42-9.31,20.55-9.09,42.21-14.43,64.09-19.05,7.25-1.53,14.35-3.77,21.61-5.18,8.06-1.55,16.09-3.59,24.47-2.95,3.93.31,7.61,1.13,10.84,3.35,5.6,3.86,10.29,8.46,13.49,14.71,6.45,12.57,13.48,24.84,20,37.38,14.76,28.4,25.99,58.27,35.97,88.61,16.12,48.99,28.32,98.99,38.08,149.59,8.11,42.01,14.45,84.28,18.8,126.83Zm-5.6,151.08c1.88-48.15-.71-96.16-5.46-144.07-4.65-46.81-11.61-93.28-20.8-139.41-10.15-50.97-22.63-101.33-39.54-150.51-10.65-30.99-22.44-61.49-39.7-89.58-2.52-4.1-4.1-8.76-6.56-12.9-3.98-6.71-8.14-13.36-12.68-19.7-1.28-1.79-4.08-3.17-6.34-3.42-3.65-.41-7.45.07-11.14.52-7.47.9-14.77,2.52-21.97,4.83-4.49,1.44-9.27,1.99-13.92,2.96-33.66,7.07-66.19,16.97-94.69,37.2-2.49,1.77-5.28,1.44-7.41-.38-2.4-2.06-3.35-5.16-1.98-7.89,3.11-6.17,5.82-12.66,9.77-18.27,10-14.24,19.98-28.55,32.4-40.91.32-.32.59-.7,1.26-1.51-1.43.1-2.32.08-3.17.24-8.27,1.55-16.69,2.54-24.76,4.8-52.64,14.78-99.25,40.82-140.18,76.89-16.79,14.79-32.11,30.99-37.43,53.92-.14.61-.14,1.54.22,1.93,5.61,6.04,11.12,12.18,17,17.95,5.16,5.06,11.31,9.24,12.77,17.32,11.44-6.45,23.59-7.96,36.07-7.46,12.53.5,24.37,3.26,34.45,12.37,0-2.12-.12-3.54.02-4.93.65-6.28.49-12.81,2.23-18.79,4.63-15.79,15.65-26.15,30.76-31.92,12.91-4.93,26.41-7.56,40.25-8.28,16.33-.86,32.47.78,48.55,3.38,11.11,1.8,22.2,3.69,32.8,7.68,11.48,4.33,19.65,11.92,22.66,24.09,2.18,8.87,1.63,17.86.06,26.81-.42,2.44-.76,4.91-.88,7.38-.18,3.69-1.08,6.9-4.45,8.98-3.61,2.22-7.27,3.82-11.74,2.66-2.47-.64-5.11-.7-7.68-.86-.68-.04-1.78.33-2.01.83-.93,1.98-1.49,4.14-2.38,6.15-3.36,7.58-7.2,14.86-13.71,20.33-.15.13-.16.43-.27.78.9.11,1.72.24,2.55.3,16.14,1.32,31.74,4.99,46.87,10.71,1.16.44,2.33.98,3.33,1.69,2.28,1.64,3.02,4.45,1.97,6.89-1.03,2.4-3.64,3.81-6.37,3.31-1.22-.23-2.4-.68-3.57-1.11-31.94-11.68-64.35-14.26-97.14-4.21-27.62,8.47-49.48,24.63-63.8,50.18-.43.77-.78,1.58-1.23,2.49,2.56.63,4.86,1.08,7.08,1.77,10.54,3.24,20.66,7.36,27.92,16.16,3.81,4.62,7.5,9.43,10.53,14.58,2.53,4.32,4.7,9.1,5.8,13.95,1.48,6.53,1.89,13.32,2.55,20.02.53,5.31.84,10.64,1.07,15.96.2,4.73.19,9.47.2,14.21,0,1.1-.31,2.2-.57,3.9,5.65-3.16,10.82-5.99,15.92-8.96.47-.28.73-1.43.63-2.1-.32-2.01-1.42-4.03-1.24-5.95,1.13-11.78,2.46-23.54,3.87-35.29.4-3.31,2.49-5.26,5.21-5.6,2.89-.36,5.14,1.14,6.62,4.26,1.79,3.76,3.71,7.46,5.47,11.23,2.59,5.5,5.09,11.04,7.63,16.57.23.5.49,1,.73,1.49.39-.06.65-.05.87-.13,11.9-4.46,24.18-7.51,36.61-10.03,8.18-1.66,16.39-3.09,24.8-1.96,13.06,1.74,24.63,7.46,36.01,13.63,1.2.64,2.27,1.74,3.07,2.86,1.43,2.03,1.4,4.27-.03,6.32-1.44,2.03-3.52,2.77-5.94,2.18-1.03-.24-1.98-.83-2.97-1.27-7.51-3.37-14.87-7.19-22.61-9.93-4.67-1.67-9.92-2.04-14.95-2.32-5.65-.31-5.71.01-6.57,5.57-2.16,13.95-4.79,27.77-10.22,40.89-1.31,3.15-2.65,6.32-4.34,9.26-1.93,3.34-5.76,4.2-8.61,2.3-2.17-1.44-2.85-3.65-2.89-6.06-.19-9.06-1.81-17.9-4.05-26.64-1.41-5.53-2.89-11.05-4.38-16.75-1.15.34-2.1.59-3.03.89-9.97,3.22-19.33,7.67-28.21,13.25-10.1,6.36-20.55,12.06-32.01,15.69-.58.18-1.07.73-1.56,1.14-2.67,2.23-5.13,4.78-8.03,6.65-6.91,4.45-15,5.93-22.75,8.09-10.1,2.8-20.5,2.06-30.84,1.65-18.99-.77-34.6-8.65-47.66-22.31.06-.03-.13.01-.23.12-.51.56-1.02,1.11-1.48,1.69-4.16,5.25-9.41,8.97-15.79,10.95-5.24,1.63-10.5,3.3-15.87,4.44-5.41,1.15-10.97,1.67-16.78,2.5.51.61.82,1.11,1.24,1.48,7.25,6.51,14.05,13.61,21.84,19.4,28.18,20.94,60.51,29.95,95.17,31.38,35.08,1.44,68.85-5.25,101.57-17.52,46.42-17.41,86.9-44.17,122.37-78.66,1.13-1.1,2.31-2.21,3.65-3,2.34-1.37,5.13-.86,6.89.99,1.68,1.78,2.03,4.42.74,6.73-.52.93-1.23,1.79-1.98,2.54-2.24,2.24-4.52,4.44-6.84,6.6-38.06,35.48-81.2,62.67-130.67,79.29-41.26,13.86-83.37,19.21-126.62,11.33-1.78-.32-2.33.35-2.69,1.91-1.91,8.37-3.78,16.74-5.87,25.06-5.12,20.48-9.71,41.02-10.38,62.26-.39,12.34-1.11,24.65,1.28,36.89.44,2.24,1.36,3.56,3.51,4.58,16.41,7.77,33.49,13.62,50.97,18.39,40.09,10.95,80.99,17.15,122.38,20.37,37.47,2.92,74.93,3.39,112.37-.54,17.68-1.85,35.2-4.65,52.1-10.44,7.2-2.46,14.19-5.41,20.14-10.31,2.62-2.16,5.06-4.43,4.21-8.4-.16-.78.13-1.65.18-2.48.83-12.06,1.96-24.11,2.43-36.18Zm-177.39-412.63c.16-4.41.51-8.83.28-13.23-.48-9.06-4.75-15.81-13.1-19.71-2.33-1.09-4.74-2.08-7.22-2.77-20.07-5.65-40.6-8.27-61.37-9.17-15.94-.5-31.49,1.86-46.42,7.27-14.53,5.26-24.53,14.96-26.31,31.17-.5,4.54-.53,9.15-.43,13.72.05,2.18.79,4.39,1.45,6.51.56,1.81,1.68,2.26,3.65,1.38,5.54-2.49,11.15-4.86,16.82-7.04,14.12-5.44,28.55-9.73,43.79-10.48,21.61-1.06,42.9,1.5,64.03,5.85,6.27,1.29,12.59,2.4,18.93,3.31,3.26.47,4.32-.49,5.28-3.63.31-1.03.58-2.11.62-3.18Zm-18.2,226.71c1.66-8.69,3.31-17.38,5.06-26.56-4.92,1.16-9.09,2.14-13.28,3.13,2.57,7.93,5.04,15.57,7.51,23.21.24.07.47.14.71.22Zm-18.4-187.53c3.09-4.7,5.98-9.53,9.04-14.46-13.75-7.12-27.97-8.77-43.02-8.11,5.19,11.32,4.27,22.38.56,33.45,6.32.38,25.07-4.45,29.94-7.72,1.29-.86,2.64-1.89,3.48-3.16Zm-25.45,164.46c.36-.21.73-1.04.59-1.39-1.58-4.05-3.26-8.06-4.91-12.07-.2.06-.41.12-.61.18-1.28,5.96-2.56,11.92-3.9,18.16,3.08-1.68,5.98-3.23,8.83-4.88Zm-17.67-162.29c1.9-7.72,1.46-15.18-2.52-22.27-.87-1.55-1.86-2.09-3.58-1.9-6.37.73-12.75,1.35-19.12,2.04-1.47.16-2.92.45-4.65.72,3.46,9.46,3.62,18.64-.7,27.79.97.24,1.59.48,2.22.55,7.11.81,14.22,1.66,21.35,2.34,3.89.37,3.93.24,5.24-3.55.66-1.89,1.29-3.79,1.76-5.72Zm-18.95,20.49c-.48-.3-.6-.43-.74-.45-1.23-.18-2.47-.33-3.71-.5-9.7-1.29-19.36-2.74-27.87-8.07-9.35-5.86-18.16-12.41-25.59-20.67-.89-.99-2.2-1.6-3.62-2.6-.37,1.11-.55,1.57-.68,2.04-2.55,9.33-4.93,18.72-11,26.61-.4.51-.42,1.39-.46,2.11-.47,8.22-.61,16.48-1.47,24.66-.5,4.72-2.15,9.32-3.17,13.49,6.2,5.35,12.16,10.86,17.34,17.42,13.57-25.62,34.41-42.95,60.97-54.04Zm-11.75,167.55c3.29-5.47,5.12-11.71,4.62-18.37-.63-8.39-1.24-16.78-1.64-25.18-.54-11.41-2.92-22.11-10.62-31.06-1.62-1.89-2.88-4.1-4.5-5.99-1.61-1.89-3.26-3.87-5.27-5.28-8.49-5.95-17.98-9.39-28.33-10.26-1.76-.15-3.76.04-5.35.74-5.23,2.3-10.26,5.06-15.5,7.37-6.05,2.67-9.9,7.14-11.92,13.33-.36,1.11-.69,2.23-1.04,3.34-1.42,4.46-4.07,7.84-8.56,9.46-1.63.58-1.81,1.46-1.53,3.02,1.3,7.26,1.55,14.56.72,21.91-.44,3.89-.43,7.84-1.06,11.69-.81,4.99-1.75,10.01-3.23,14.83-.81,2.62-.42,4.46,1.48,5.97,10.15,8.07,20.94,14.89,34.22,16.36,4.97.55,9.97.74,14.96,1.09,11.99.83,23.13-2.76,34.08-6.82,3.2-1.18,6.79-3.37,8.47-6.15Zm-64.57-101.24c6.92-2.77,7.26-4.75,1.92-10.09-3.8-3.79-7.5-7.68-11.52-11.81-6.39,3.2-14.06,3.41-21.74,3.36-9.58-.06-19.16-.34-28.74-.3-2.33,0-4.92.44-6.94,1.52-4.36,2.35-7.15,6.39-9.65,10.58-.63,1.07-.5,1.89.87,2.24,4.18,1.09,8.3,2.57,12.55,3.2,6.2.93,11.1,3.61,14.23,9.02,2.91,5.04,5.48,10.27,8.19,15.41,1.01,1.91,1.84,3.93,3.06,5.69.58.82,1.88,1.58,2.88,1.61,4.97.14,8.16-2.3,9.66-7.08,3.18-10.05,9.45-17.27,19.4-21.1,1.95-.75,3.9-1.48,5.83-2.25Zm.69-109.88c.2-.86-.48-2.41-1.24-2.93-2.95-1.99-5.88-4.4-9.19-5.38-12.71-3.78-25.53-6.35-38.48-.53-2.76,1.24-5.13,2.67-6.84,5.15-5.61,8.09-6.9,17.15-6.05,26.7.14,1.61,1.02,2.41,2.54,2.54,1.33.12,2.68.33,3.98.18,2.81-.32,5.58-1.03,8.4-1.24,13.39-.99,26.56,1.29,40.08,2.7.03-.03.2-.13.24-.27,2.22-8.97,4.48-17.92,6.56-26.92Zm-10.63,60.72c.87-7.91,2.23-15.9-.47-23.79-8.14-.31-16.13-.87-24.11-.86-5.71.01-11.43.74-17.14,1.21-1.98.17-3.95.61-5.93.76-3.76.3-4.89,1.15-5.46,4.86-.52,3.45-.8,6.95-1.21,10.42-.86,7.2-1.83,14.38-2.54,21.6-.33,3.37.38,4.1,3.72,4.15,12.99.19,25.99.3,38.98.31,2.22,0,4.45-.6,6.66-1.01,2.32-.42,4.07-1.7,4.63-4.03,1.08-4.51,2.37-9.03,2.87-13.62Zm-26.85,120.32c.86-8.87,1.92-17.74.27-26.65-.27-1.48-.89-2.09-2.27-2.79-2.77-1.39-5.7-2.93-7.72-5.17-2.17-2.4-3.41-5.65-4.99-8.56-2.62-4.82-5.02-9.77-7.86-14.44-.83-1.36-2.76-2.38-4.39-2.85-6.15-1.78-12.39-3.24-18.58-4.88-2.77-.74-4.91-2.31-6.27-4.96-.34-.67-1.26-1.26-2.03-1.46-8.95-2.36-17.48-1.71-25.31,3.73-.89.61-1.91,1.03-2.89,1.48-7.12,3.25-12.79,8.36-18.07,13.98-4.37,4.64-7.1,10.1-7.66,16.47-1.08,12.28-2.02,24.57-3.01,36.85.2.02.4.03.6.05,0,5.75-.29,11.51.07,17.24.51,7.97,4.01,13.97,11.89,17.19,7.07,2.88,14.42,4.35,21.89,4.71,8.12.4,16.3-.34,24.46-.38,11.05-.04,21.7-2.2,32.01-6.02,2.46-.91,5.02-2.08,6.95-3.79,5.85-5.19,10.18-11.49,11.68-19.34.65-3.42.9-6.93,1.23-10.41Zm-34.41-148.51c.95-1.95-.44-2.97-.91-4.32-.12-.34-1.74-.44-2.54-.22-18.39,5.07-32.97,15.62-44.01,31.05-8.59,12.01-13.78,25.25-13.23,40.29.1,2.67.61,5.32.96,8.21,5.29-2.72,10.02-5.35,14.92-7.6,3.15-1.44,6.49-2.65,9.87-3.39,5.59-1.22,11.07.24,16.51,1.53.78.18,2.19.02,2.48-.47,2.9-4.84,6.41-9.1,11.03-12.54-2.44-5.01-2.93-7.22-2.29-13.09,1.07-9.85,2.11-19.71,3.59-29.5.52-3.43,2.08-6.78,3.62-9.95Zm-1.86-41.13c.21-5.06-1.89-8.75-5.56-12.2-6.85-6.43-13.16-13.42-19.89-19.99-4.21-4.11-8.62-8.07-13.23-11.73-4.82-3.83-10.58-4.93-16.56-3.73-4.96,1-9.83,2.49-14.72,3.84-4.21,1.16-5.92,4.11-6.02,8.38-.25,11.18,3.02,20.93,10.83,29.15,3.31,3.48,7.04,5.66,11.79,5.63,9.46-.07,18.42,2.71,27.49,4.76,3.28.75,6.53,2.06,9.51,3.64,5.11,2.69,10.58,2.4,16.33,2.94,0-3.75-.11-7.23.03-10.69Zm-31.73,37.58c-.71-3.67-1.67-6.72-1.79-9.81-.11-3.16.6-6.35.99-9.83-6.4-.73-12.89-1.47-19.67-2.24.22,11.27,5.26,20.21,11.19,29.13,3.21-2.51,6.58-5.14,9.28-7.25Z" class="cls-5"/><path d="m319.91,119.65c3.61,10.58,2.22,20.62-3.78,29.89-2.56,3.94-6.03,7.29-8.87,11.06-2.85,3.77-5.82,7.53-8.02,11.68-2.52,4.74-2.23,9.89-.64,15.08.76,2.53.86,5.39.66,8.06-.22,2.87-2.31,4.49-5.11,5.08-4.71,1-9.43,2-14.15,2.98-5.26,1.08-9.55-1.81-10.93-7.67-.83-3.56-1.27-7.21-1.81-10.84-.8-5.27-1.5-10.55-2.31-15.82-1.6-10.56,2.88-18.65,10.41-25.41,2.54-2.28,5.33-4.28,8.14-6.21,2.83-1.94,3.55-4.74,3.55-7.83,0-.67-.84-1.88-1.39-1.94-2.16-.2-4.54-.58-6.52.07-4.93,1.62-8.63,4.94-10.88,9.71-1.61,3.39-3.15,6.81-4.8,10.17-.62,1.26-1.35,2.52-2.27,3.58-2.05,2.38-5.18,2.89-7.93,1.35-3.42-1.9-6.91-3.71-10.14-5.89-2.88-1.95-5.61-4.2-8.13-6.6-2.8-2.67-2.81-5.18-.76-8.51.73-1.19,1.16-2.56,1.68-3.87,1.55-3.95,2.96-7.97,4.64-11.86,6.65-15.39,18.36-23.43,35.16-23.97,1.41-.04,2.83,0,4.24,0,9.64-.24,18.67,1.91,26.95,6.95,5.28,3.21,8.92,7.68,10.72,13.62.73,2.39,1.49,4.78,2.29,7.14Zm-12.1,20.65c4.72-7.57,1.14-23.03-6.02-28.76-9.12-7.3-19.14-9.04-30.29-7.39-8.09,1.2-14.14,5.21-18.02,12.35-1.82,3.35-3.42,6.86-4.81,10.41-3.3,8.43-3.19,8.55,5.25,12.16.13.05.31,0,.61,0,1.23-2.57,2.42-5.23,3.77-7.8,4-7.62,10.31-12.54,18.43-15.12,5.61-1.78,11.05-.99,16.18,1.83,3.34,1.83,5.47,4.67,5.81,8.52.73,8.29-1.28,15.42-8.41,20.67-3.92,2.89-7.46,6.31-10.98,9.7-2.01,1.93-2.59,4.55-2.3,7.38.6,5.88,1.04,11.78,1.69,17.65.33,2.96.98,5.88,1.52,9.04,2.34-.44,4.43-.83,6.87-1.29-1.56-5.22-1.96-10.12-.9-15.14,1.92-9.07,7.16-16.12,13.21-22.83,3.15-3.48,5.9-7.39,8.39-11.38Z" class="cls-5"/><path d="m317.86,227.67c3.65,5.48,1.73,10.01-4.69,11.37-10.26,2.17-20.57,4.12-30.92,5.77-7.05,1.12-10.5-2.12-10.74-9.25-.05-1.67-.01-3.33-.01-5-.05-.01-.11-.02-.16-.02.63-5.21,1.22-10.42,1.92-15.62.58-4.31,3.27-7.01,7.33-7.86,5.37-1.12,10.83-1.84,16.27-2.5,2.77-.33,4.81.99,6.97,2.99,6.18,5.73,9.51,13.33,14.03,20.12Zm-13.93.32c-2.21-3.84-4.28-7.53-6.48-11.13-.27-.45-1.26-.74-1.85-.65-3.12.44-6.24.98-9.33,1.61-.63.12-1.6.67-1.66,1.13-.57,4.21-.97,8.45-1.44,12.8,7.26-1.31,13.94-2.53,20.76-3.76Z" class="cls-5"/><path d="m258.31,244.28c6.36,2.46,7.57,8.02,2.46,12.55-3.18,2.81-6.5,5.48-9.88,8.04-8.95,6.81-17.94,13.56-27,20.23-2.09,1.53-4.51,2.61-6,3.46-4.69-.37-7.44-2.22-9.4-5.05-1.55-2.24-2.64-4.8-3.93-7.22-2.54-4.76-5.07-9.53-7.62-14.28-.43-.81-.97-1.56-1.4-2.36-2.41-4.54-2.12-8.34,1.59-11.85,6.96-6.56,14.14-12.9,21.28-19.28,3.47-3.11,6.93-3.82,11.22-.85,6.42,4.45,13.21,8.38,19.94,12.37,2.78,1.64,5.73,3.07,8.74,4.24Zm-12.33,7.94c-.62-.45-1.12-.87-1.67-1.19-6.58-3.75-13.16-7.51-19.78-11.16-.5-.28-1.67-.07-2.07.35-4.98,5.13-9.87,10.33-14.79,15.52,3.38,5.86,6.73,11.68,10.01,17.37,9.36-6.9,18.76-13.85,28.3-20.89Z" class="cls-5"/><path d="m208.71,209.6c5.07,6.99,3.1,8.24-.8,13.73-2.84,3.99-6.32,7.51-9.35,11.37-3.82,4.86-7.17,5.7-12.19,2.12-6.66-4.75-11.63-11.21-16.02-18-5.48-8.45-10.43-17.25-15.68-25.85-5.46-8.92-5.65-18.27-2.45-27.9,1.03-3.08,2.27-6.09,3.5-9.1,2.13-5.24,3.32-10.66,3.15-16.32-.17-5.55-1.6-6.72-7.03-7.14-10.34-.8-19.11,10.01-19.54,17.89-.24,4.4-.04,8.83-.04,12.63.19,4.02.39,7.43.51,10.85.21,5.96-2.75,8.56-8.64,7.93-5.8-.63-11.61-1.23-17.43-1.52-6.38-.32-10.26-3.6-12.63-9.3-2.67-6.41-4.08-13.12-3.78-19.98.35-7.88.84-15.85,2.37-23.56,3.1-15.5,13.19-25.8,27.09-32.24,18.35-8.51,37.14-9.11,56.05-1.54,18.15,7.26,26.49,21.17,27.16,40.18.33,9.58-1.68,18.9-3.62,28.2-.28,1.39-.47,2.81-.85,4.17-4.6,16.34.86,30.45,10.22,43.38Zm-10.07,6.08c-1.71-2.91-3.48-5.72-5.06-8.65-6.17-11.46-10.18-23.38-7.67-36.67.77-4.09,1.66-8.17,2.24-12.29,1.17-8.32,3.01-16.65,3.07-24.98.08-14.01-6.37-24.41-19.88-29.7-17.18-6.72-34.01-5.6-50.22,2.9-9.34,4.9-16.15,12.3-18.92,22.81-2.89,10.99-3.71,22.17-2.54,33.47.28,2.76.94,5.48,1.35,7.79,6.76-.34,13.06-.65,19.75-.98-.03-.86-.08-1.67-.1-2.49-.11-5.08-.35-10.16-.3-15.24.18-15.41,15.09-33.72,35.54-30.52,7.67,1.21,12.66,5.56,14.11,13.4,1.6,8.62.01,16.91-3.07,24.99-1.3,3.42-2.7,6.81-3.86,10.28-2.19,6.58-1.28,12.71,2.49,18.62,4.74,7.44,8.93,15.25,13.76,22.63,3.3,5.03,7.29,9.6,11.12,14.56,3.03-3.68,5.62-6.81,8.19-9.93Z" class="cls-5"/><path d="m394.98,387.16c1.49,26.13-18.36,48-44.48,49.31-25.26,1.26-47.36-18.73-48.62-43.9-1.35-27.07,19.89-49.17,46.33-49.33,22.99-.55,45.27,17.66,46.77,43.92Zm-6.79,2.72c.01-22.23-17.91-39.8-40.52-39.75-21.26.06-38.94,18.07-38.94,39.67s17.77,39.8,39.71,39.82c21.97.02,39.74-17.74,39.75-39.74Z" class="cls-3"/><path d="m347.67,350.13c22.61-.05,40.53,17.52,40.52,39.75-.01,22-17.78,39.76-39.75,39.74-21.94-.02-39.71-17.84-39.71-39.82s17.68-39.61,38.94-39.67Zm15.39,44.45c.27-.51.41-1.08.63-1.66-.24-.77-.4-1.54-.72-2.24-.96-2.14-1.98-4.25-2.98-6.36-2.74-5.79-5.46-11.57-8.22-17.34-1.02-2.12-2.43-2.25-3.87-.36-.56.74-1.07,1.52-1.52,2.33-3.65,6.58-7.26,13.18-10.93,19.73-1.02,1.82-.98,3.49.07,5.24,1.63,2.73,3.21,5.48,4.82,8.21,2.63,4.46,5.25,8.93,7.9,13.38,1.09,1.83,2.36,1.88,3.61.15.37-.51.69-1.07.98-1.63,3.42-6.48,6.83-12.96,10.23-19.45Z" class="cls-5"/><path d="m358.9,389.23l-.33.36c-2.28-1.38-4.56-2.76-6.83-4.16-.21-.13-.44-.45-.44-.69-.03-3.77-.02-7.55-.02-11.61,2.61,5.5,5.11,10.8,7.62,16.1Z" class="cls-2"/><path d="m351.63,405.5c0-1.7-.51-3.68.19-5.02.67-1.27,2.62-1.87,4-2.76.9-.58,1.79-1.15,2.68-1.73.08.07.16.15.23.23-2.22,4.26-4.44,8.52-6.66,12.78-.15-.01-.3-.02-.44-.02,0-1.16-.01-2.32,0-3.48Z" class="cls-2"/><path d="m351.55,389.07c2.03,1.15,4.11,2.33,6.34,3.6-2.05,1.38-4.04,2.72-6.34,4.27v-7.87Z" class="cls-2"/><path d="m335.45,388.68c3.67-6.55,7.28-13.15,10.93-19.73.45-.81.96-1.59,1.52-2.33,1.44-1.89,2.85-1.76,3.87.36,2.76,5.77,5.48,11.55,8.22,17.34,1,2.11,2.02,4.22,2.98,6.36.32.7.48,1.47.72,2.24-.22.58-.36,1.15-.63,1.66-3.4,6.49-6.81,12.97-10.23,19.45-.29.56-.61,1.12-.98,1.63-1.25,1.73-2.52,1.68-3.61-.15-2.65-4.45-5.27-8.92-7.9-13.38-1.61-2.73-3.19-5.48-4.82-8.21-1.05-1.75-1.09-3.42-.07-5.24Zm16.1,8.26c2.3-1.55,4.29-2.89,6.34-4.27-2.23-1.27-4.31-2.45-6.34-3.6v7.87Zm-.27-23.81c0,4.06-.01,7.84.02,11.61,0,.24.23.56.44.69,2.27,1.4,4.55,2.78,6.83,4.16l.33-.36c-2.51-5.3-5.01-10.6-7.62-16.1Zm-2.74,36.29c0-3.01.03-6.02-.04-9.03-.01-.4-.5-.9-.89-1.17-1.55-1.03-3.14-1.99-4.71-2.97-1.08-.68-2.16-1.34-3.24-2.01-.07.08-.14.16-.21.25,2.95,4.99,5.9,9.99,8.85,14.98.08-.01.16-.03.24-.05Zm.05-32.78v-4.72c-.13-.02-.27-.03-.4-.05-2.98,5.46-5.96,10.92-9.06,16.6,3.12-1.02,5.95-1.9,8.75-2.89.34-.12.68-.77.69-1.18.06-2.59.02-5.17.02-7.76Zm7.23,21.08c-1.38.89-3.33,1.49-4,2.76-.7,1.34-.18,3.32-.19,5.02-.01,1.16,0,2.32,0,3.48.14,0,.29.01.44.02,2.22-4.26,4.44-8.52,6.66-12.78-.07-.08-.15-.16-.23-.23-.89.58-1.78,1.15-2.68,1.73Zm-7.39-1.61v-7.53c-2.59.87-5.02,1.68-7.87,2.63,2.81,1.75,5.26,3.27,7.87,4.9Z" class="cls-3"/><path d="m348.59,376.64c0,2.59.04,5.17-.02,7.76-.01.41-.35,1.06-.69,1.18-2.8.99-5.63,1.87-8.75,2.89,3.1-5.68,6.08-11.14,9.06-16.6.13.02.27.03.4.05v4.72Z" class="cls-2"/><path d="m348.3,409.47c-2.95-4.99-5.9-9.99-8.85-14.98.07-.09.14-.17.21-.25,1.08.67,2.16,1.33,3.24,2.01,1.57.98,3.16,1.94,4.71,2.97.39.27.88.77.89,1.17.07,3.01.04,6.02.04,9.03-.08.02-.16.04-.24.05Z" class="cls-2"/><path d="m348.43,388.58v7.53c-2.61-1.63-5.06-3.15-7.87-4.9,2.85-.95,5.28-1.76,7.87-2.63Z" class="cls-2"/></svg>